<?xml version="1.0" standalone="no"?><!DOCTYPE svg PUBLIC "-//W3C//DTD SVG 1.1//EN" "http://www.w3.org/Graphics/SVG/1.1/DTD/svg11.dtd"><svg t="1748099725054" class="icon" viewBox="0 0 1060 1024" version="1.1" xmlns="http://www.w3.org/2000/svg" p-id="23329" xmlns:xlink="http://www.w3.org/1999/xlink" width="207.03125" height="200"><path d="M925.575685 308.301075H774.753979L604.343377 137.762441c6.529632-13.059265 13.059265-32.776194 13.059265-45.835459 0-52.493123-39.305826-91.79895-91.79895-91.79895s-91.79895 39.305826-91.79895 91.79895c0 19.716929 6.529632 32.776194 13.059265 45.835459l-170.282571 170.538634H125.887763c-65.552388 0-124.575144 52.493123-124.575144 124.575144v465.396349c0 72.082021 59.022756 124.575144 124.575144 124.575144h799.687922c72.082021 0 124.575144-59.022756 124.575144-124.575144V432.748187c0-72.082021-59.022756-124.447112-124.575144-124.447112zM460.179336 157.47937c19.716929 19.716929 39.305826 26.246562 65.552388 26.246561 26.246562 0 45.835459-13.059265 65.552388-26.246561l150.821705 150.821705h-432.748187L460.179336 157.47937z m537.478369 740.793198c0 39.305826-32.776194 72.082021-72.08202 72.082021H125.887763c-39.305826 0-72.082021-32.776194-72.082021-72.082021V432.748187c0-39.305826 32.776194-72.082021 72.082021-72.08202h799.687922c39.305826 0 72.082021 32.776194 72.08202 72.08202v465.524381z m0 0" p-id="23330" fill="#cdcdcd"></path><path d="M230.745977 550.793698c-32.776194 0-59.022756 13.059265-78.611653 32.776194-19.716929 19.716929-26.246562 45.835459-26.246561 85.269318 0 32.776194 6.529632 59.022756 26.246561 78.611653 19.716929 19.716929 45.835459 26.246562 78.611653 26.246561s59.022756-13.059265 78.611653-32.776194c19.716929-19.716929 26.246562-45.835459 26.246562-85.269317 0-32.776194-6.529632-59.022756-26.246562-78.611653-19.588897-13.187297-45.835459-26.246562-78.611653-26.246562z m39.305827 163.880971c-13.059265 13.059265-26.246562 19.716929-39.305827 19.716929-19.716929 0-32.776194-6.529632-39.305826-19.716929-13.059265-13.059265-13.059265-32.776194-13.059265-52.493124s6.529632-39.305826 13.059265-52.493123c6.529632-13.059265 19.716929-19.716929 39.305826-19.716929 19.716929 0 32.776194 6.529632 39.305827 19.716929 6.529632 13.059265 13.059265 32.776194 13.059265 52.493123 0 26.246562 0 39.433858-13.059265 52.493124z m0 0M446.992039 557.323331h-78.611653v216.374093h45.835459v-78.611653h26.246562c26.246562 0 45.835459-6.529632 59.022755-19.716929 19.716929-13.059265 26.246562-32.776194 26.246562-52.493123 0-45.835459-26.246562-65.552388-78.739685-65.552388z m-13.059265 104.858214h-19.716929v-72.08202h19.716929c26.246562 0 39.305826 13.059265 39.305827 32.776194 6.529632 26.246562-6.529632 39.305826-39.305827 39.305826z m0 0M604.343377 681.898475h72.08202v-39.305827h-72.08202v-52.493123h78.611653v-32.776194H558.379886v216.374093h131.104776v-39.305826h-85.269317v-52.493123z m0 0M873.082562 675.368842v32.776194s-6.529632-6.529632-13.059265-19.716929L774.753979 550.793698h-52.493123v222.903726h45.835459V616.346087c0 6.529632 6.529632 13.059265 13.059265 19.716929l91.79895 137.634408h45.835458v-216.374093h-45.835458v118.045511z m0 0" p-id="23331" fill="#cdcdcd"></path></svg>