<?xml version="1.0" standalone="no"?><!DOCTYPE svg PUBLIC "-//W3C//DTD SVG 1.1//EN" "http://www.w3.org/Graphics/SVG/1.1/DTD/svg11.dtd"><svg t="1746092883795" class="icon" viewBox="0 0 1024 1024" version="1.1" xmlns="http://www.w3.org/2000/svg" p-id="7855" xmlns:xlink="http://www.w3.org/1999/xlink" width="200" height="200"><path d="M917.282 508.126V362.7c0-47.138-38.195-85.334-85.333-85.334H661.282c-47.138 0-85.333 38.196-85.333 85.334v11.059c-5.53-5.205-11.571-10.001-18.705-13.62l-152.2-77.209c-42.036-21.316-93.39-4.54-114.706 37.479l-65.792 129.706c-78.268 16.401-148.685 66.73-187.682 143.6C-31.369 728.2 22.34 892.552 156.843 960.785c102.024 51.745 221.15 33.21 302.523-37.394-20.855-28.877-37.615-60.809-49.63-95.01-50.039 58.317-134.997 77.397-206.574 41.096-84.054-42.65-117.624-145.373-74.991-229.41 42.65-84.07 145.356-117.64 229.41-74.99 17.596 8.908 32.836 20.599 45.773 34.064 27.22-93.644 89.924-171.946 172.578-219.835v128.836c-62.379 50.056-102.4 126.788-102.4 212.975 0 150.818 122.248 273.067 273.066 273.067s273.067-122.249 273.067-273.067c0.017-86.204-40.021-162.936-102.383-212.992z m-436.804-72.09c-12.8 25.225-43.623 35.277-68.83 22.477-25.225-12.783-35.277-43.605-22.494-68.813 12.8-25.224 43.623-35.294 68.83-22.494s35.277 43.589 22.494 68.83z m266.137-107.451c28.28 0 51.2 22.92 51.2 51.2s-22.92 51.2-51.2 51.2-51.2-22.921-51.2-51.2 22.921-51.2 51.2-51.2z m0 563.2c-94.242 0-170.666-76.425-170.666-170.667S652.373 550.45 746.615 550.45s170.667 76.425 170.667 170.667-76.407 170.667-170.667 170.667zM473.55 294.45c47.138 0 85.333-38.195 85.333-85.333s-38.195-85.333-85.333-85.333-85.334 38.195-85.334 85.333 38.196 85.333 85.334 85.333z m0-119.466c18.841 0 34.133 15.291 34.133 34.133S492.39 243.25 473.55 243.25s-34.134-15.292-34.134-34.133 15.292-34.133 34.134-34.133z m358.4 17.066c0-47.138-38.195-85.333-85.334-85.333-20.428 0-38.946 7.475-53.64 19.473 1.468-6.28 2.44-12.749 2.44-19.473 0-47.138-38.195-85.333-85.333-85.333S524.75 59.58 524.75 106.718s38.195 85.333 85.333 85.333c20.429 0 38.946-7.475 53.64-19.473-1.467 6.28-2.44 12.749-2.44 19.473 0 47.138 38.195 85.334 85.333 85.334s85.334-38.196 85.334-85.334z m-221.867-51.2c-18.841 0-34.133-15.292-34.133-34.133s15.292-34.133 34.133-34.133 34.133 15.291 34.133 34.133-15.274 34.133-34.133 34.133z m136.533 85.334c-18.841 0-34.133-15.292-34.133-34.134s15.292-34.133 34.133-34.133 34.134 15.292 34.134 34.133-15.275 34.134-34.134 34.134z" fill="#d81e06" p-id="7856"></path></svg>