<?xml version="1.0" standalone="no"?><!DOCTYPE svg PUBLIC "-//W3C//DTD SVG 1.1//EN" "http://www.w3.org/Graphics/SVG/1.1/DTD/svg11.dtd"><svg t="1748099279925" class="icon" viewBox="0 0 1024 1024" version="1.1" xmlns="http://www.w3.org/2000/svg" p-id="8933" width="200" height="200" xmlns:xlink="http://www.w3.org/1999/xlink"><path d="M923.584 960H299.296a35.68 35.68 0 1 1 0-71.344h587.856V135.344H136.848v711.232a36.432 36.432 0 0 1-72.848 0V99.664A35.696 35.696 0 0 1 100.416 64h823.152A35.696 35.696 0 0 1 960 99.664v824.672A36.64 36.64 0 0 1 923.584 960z" fill="#cdcdcd" p-id="8934"></path><path d="M512 512a287.04 287.04 0 0 1-288-284.8 35.552 35.552 0 0 1 71.104 0 216.896 216.896 0 0 0 433.776 0 35.552 35.552 0 0 1 71.104 0A287.04 287.04 0 0 1 512 512z" fill="#cdcdcd" p-id="8935"></path></svg>