<?xml version="1.0" standalone="no"?><!DOCTYPE svg PUBLIC "-//W3C//DTD SVG 1.1//EN" "http://www.w3.org/Graphics/SVG/1.1/DTD/svg11.dtd"><svg t="1748099673144" class="icon" viewBox="0 0 1024 1024" version="1.1" xmlns="http://www.w3.org/2000/svg" p-id="20327" xmlns:xlink="http://www.w3.org/1999/xlink" width="200" height="200"><path d="M362.8 350H147.3c-17.8 0-32.3-14.5-32.3-32.3 0-17.8 14.5-32.3 32.3-32.3h215.5c17.8 0 32.3 14.5 32.3 32.3 0.1 17.8-14.4 32.3-32.3 32.3zM362.8 543.9H147.4c-17.8 0-32.3-14.5-32.3-32.3 0-17.8 14.5-32.3 32.3-32.3h215.5c17.8 0 32.3 14.5 32.3 32.3 0 17.8-14.5 32.3-32.4 32.3zM362.8 737.8H147.4c-17.8 0-32.3-14.5-32.3-32.3 0-17.8 14.5-32.3 32.3-32.3h215.5c17.8 0 32.3 14.5 32.3 32.3 0 17.8-14.5 32.3-32.4 32.3z" fill="#A1A0A5" p-id="20328"></path><path d="M664.5 533.1m-53.9 0a53.9 53.9 0 1 0 107.8 0 53.9 53.9 0 1 0-107.8 0Z" fill="#A1A0A5" p-id="20329"></path><path d="M659.1 884.9c-15.7 0-30.3-7.8-39.2-20.8-59.8-88.1-160.1-248-160.1-328.7 0-109.9 89.4-199.3 199.3-199.3s199.3 89.4 199.3 199.3c0 80.7-100.3 240.6-160.1 328.7-8.9 13.1-23.5 20.8-39.2 20.8z m0-491.8c-78.5 0-142.4 63.9-142.4 142.4 0 45.1 54.3 153.6 142.4 284.9 88-131.3 142.4-239.9 142.4-284.9 0-78.5-63.9-142.4-142.4-142.4z" fill="#A1A0A5" p-id="20330"></path><path d="M711.8 931.7H401.7c-98.7 0-178.9-72.5-178.9-161.6V231.5c0-89.1 80.3-161.6 178.9-161.6h310.1c98.7 0 178.9 72.5 178.9 161.6v538.7c0 89-80.2 161.5-178.9 161.5zM401.7 134.5c-59.2 0-107.3 43.5-107.3 97v538.7c0 53.5 48.2 97 107.3 97h310.1c59.2 0 107.3-43.5 107.3-97V231.5c0-53.5-48.2-97-107.3-97H401.7z" fill="#A1A0A5" p-id="20331"></path></svg>