<?xml version="1.0" standalone="no"?><!DOCTYPE svg PUBLIC "-//W3C//DTD SVG 1.1//EN" "http://www.w3.org/Graphics/SVG/1.1/DTD/svg11.dtd"><svg t="1748100188758" class="icon" viewBox="0 0 1173 1024" version="1.1" xmlns="http://www.w3.org/2000/svg" p-id="42224" xmlns:xlink="http://www.w3.org/1999/xlink" width="229.1015625" height="200"><path d="M1004.54525 728.252669l-11.597466-4.434326 9.891956-7.504243a147.697145 147.697145 0 0 0 60.375046-118.703479 157.589102 157.589102 0 0 0-315.178204 0A148.720451 148.720451 0 0 0 808.411627 716.3141l9.891957 7.504243-11.597466 4.434326a255.826464 255.826464 0 0 0-168.504365 238.771366v37.521215a19.783913 19.783913 0 0 0 20.466117 19.442811H1152.924599a19.783913 19.783913 0 0 0 20.125016-19.442811v-37.521215a255.826464 255.826464 0 0 0-168.504365-238.771366z m-51.847497 204.661171l-47.072069 45.36656-47.07207-45.36656 31.38138-151.790369-31.38138-30.699175h94.144139l-31.381379 30.358073zM180.101831 443.432538h-81.864469v341.101953a72.995818 72.995818 0 0 0 62.080556 68.22039h412.39226v-81.864468H180.101831V443.432538z m677.428478-186.582768a144.286126 144.286126 0 0 0 288.231149 0L1044.113077 0H98.237362L0 256.84977a142.239514 142.239514 0 0 0 142.239514 140.875107A142.580616 142.580616 0 0 0 286.52564 256.84977a143.26282 143.26282 0 0 0 286.184538 0 142.580616 142.580616 0 0 0 284.820131 0zM23.877137 974.187176A48.095375 48.095375 0 0 0 72.995818 1023.305858h499.71436v-98.237363H72.995818A48.095375 48.095375 0 0 0 23.877137 974.187176z" p-id="42225" fill="#ffffff"></path></svg>