<?xml version="1.0" standalone="no"?><!DOCTYPE svg PUBLIC "-//W3C//DTD SVG 1.1//EN" "http://www.w3.org/Graphics/SVG/1.1/DTD/svg11.dtd"><svg t="1748100219628" class="icon" viewBox="0 0 1024 1024" version="1.1" xmlns="http://www.w3.org/2000/svg" p-id="44151" xmlns:xlink="http://www.w3.org/1999/xlink" width="200" height="200"><path d="M874.666667 128h-725.333334A106.666667 106.666667 0 0 0 42.666667 234.666667v384A106.666667 106.666667 0 0 0 149.333333 725.333333h341.333334v128H256c-11.946667 0-21.333333 9.386667-21.333333 21.333334s9.386667 21.333333 21.333333 21.333333h512c11.946667 0 21.333333-9.386667 21.333333-21.333333s-9.386667-21.333333-21.333333-21.333334h-234.666667v-128h341.333334a106.666667 106.666667 0 0 0 106.666666-106.666666v-384A106.666667 106.666667 0 0 0 874.666667 128zM938.666667 618.666667c0 35.413333-28.586667 64-64 64h-725.333334c-35.413333 0-64-28.586667-64-64v-384C85.333333 199.253333 113.92 170.666667 149.333333 170.666667h725.333334c35.413333 0 64 28.586667 64 64v384z" fill="#ffffff" p-id="44152"></path><path d="M227.413333 317.013333h205.226667c11.946667 0 21.333333-9.386667 21.333333-21.333333s-9.386667-21.333333-21.333333-21.333333H227.413333c-11.946667 0-21.333333 9.386667-21.333333 21.333333s9.813333 21.333333 21.333333 21.333333zM227.413333 448h389.12c11.946667 0 21.333333-9.386667 21.333334-21.333333s-9.386667-21.333333-21.333334-21.333334H227.413333c-11.946667 0-21.333333 9.386667-21.333333 21.333334s9.813333 21.333333 21.333333 21.333333zM815.36 536.32H227.413333c-11.946667 0-21.333333 9.386667-21.333333 21.333333s9.386667 21.333333 21.333333 21.333334h587.946667c11.946667 0 21.333333-9.386667 21.333333-21.333334s-9.386667-21.333333-21.333333-21.333333z" fill="#ffffff" p-id="44153"></path></svg>