<?xml version="1.0" standalone="no"?><!DOCTYPE svg PUBLIC "-//W3C//DTD SVG 1.1//EN" "http://www.w3.org/Graphics/SVG/1.1/DTD/svg11.dtd"><svg t="1748100126179" class="icon" viewBox="0 0 1024 1024" version="1.1" xmlns="http://www.w3.org/2000/svg" p-id="38809" xmlns:xlink="http://www.w3.org/1999/xlink" width="200" height="200"><path d="M769.896296 113.777778H815.407407c64.474074 0 113.777778 49.303704 113.777778 113.777778v530.962963c0 125.155556-102.4 227.555556-227.555555 227.555555H322.37037c-125.155556 0-227.555556-102.4-227.555555-227.555555V227.555556c0-64.474074 49.303704-113.777778 113.777778-113.777778h45.511111C269.274074 68.266667 310.992593 37.925926 360.296296 37.925926h303.407408c49.303704 0 91.022222 30.340741 106.192592 75.851852z m0 75.851852c-15.17037 45.511111-56.888889 75.851852-106.192592 75.851851H360.296296c-49.303704 0-91.022222-30.340741-106.192592-75.851851H208.592593c-22.755556 0-37.925926 15.17037-37.925926 37.925926v530.962963c0 83.437037 68.266667 151.703704 151.703703 151.703703h379.25926c83.437037 0 151.703704-68.266667 151.703703-151.703703V227.555556c0-22.755556-15.17037-37.925926-37.925926-37.925926h-45.511111zM360.296296 113.777778c-22.755556 0-37.925926 15.17037-37.925926 37.925926s15.17037 37.925926 37.925926 37.925926h303.407408c22.755556 0 37.925926-15.17037 37.925926-37.925926s-15.17037-37.925926-37.925926-37.925926H360.296296z" fill="#ffffff" p-id="38810"></path><path d="M322.37037 720.592593h379.25926c22.755556 0 37.925926 15.17037 37.925926 37.925926s-15.17037 37.925926-37.925926 37.925925H322.37037c-22.755556 0-37.925926-15.17037-37.925926-37.925925s15.17037-37.925926 37.925926-37.925926zM512 417.185185h-37.925926v155.496296c0 26.548148-11.377778 37.925926-37.925926 37.925926H394.42963v-26.548148h18.962963c7.585185 0 11.377778-3.792593 11.377777-11.377778v-151.703703H364.088889v-34.133334H512v30.340741z m-174.459259 140.325926c11.377778-7.585185 22.755556-11.377778 30.34074-15.17037v37.925926c-18.962963 15.17037-45.511111 26.548148-72.059259 37.925926v-132.740741h-22.755555V455.111111h64.474074v102.4z m-11.377778-182.044444c11.377778 15.17037 15.17037 34.133333 18.962963 53.096296H303.407407c-3.792593-15.17037-11.377778-34.133333-18.962963-53.096296h41.718519z m394.42963 0c-3.792593 11.377778-3.792593 18.962963-7.585186 26.548148h37.925926v83.437037c0 26.548148-11.377778 41.718519-37.925926 41.718518h-45.511111v15.170371h98.607408v30.34074h-98.607408v41.718519h-45.511111v-41.718519h-94.814815v-30.34074h94.814815v-15.170371h-79.644444v-125.155555h37.925926c-3.792593-7.585185-7.585185-15.17037-7.585186-26.548148h45.511112v3.792592c0 11.377778 3.792593 18.962963 7.585185 22.755556h37.925926c3.792593-7.585185 7.585185-18.962963 7.585185-26.548148h49.303704z m-15.170371 56.888889h-37.925926v18.962963h37.925926v-18.962963z m-11.377778 64.474074c11.377778 0 15.17037-3.792593 15.170371-15.170371v-7.585185h-37.925926v18.962963h22.755555z m-109.985185-18.962963v18.962963h37.925926v-18.962963h-37.925926z m0-45.511111v18.962963h37.925926v-18.962963h-37.925926z" fill="#ffffff" p-id="38811"></path></svg>