<?xml version="1.0" standalone="no"?><!DOCTYPE svg PUBLIC "-//W3C//DTD SVG 1.1//EN" "http://www.w3.org/Graphics/SVG/1.1/DTD/svg11.dtd"><svg t="1748100265013" class="icon" viewBox="0 0 1024 1024" version="1.1" xmlns="http://www.w3.org/2000/svg" p-id="46339" xmlns:xlink="http://www.w3.org/1999/xlink" width="200" height="200"><path d="M608 640C590.08 640 576 654.08 576 672l0 192C576 881.92 561.92 896 544 896l-320 0C206.08 896 192 881.92 192 864l0-192C192 654.08 177.92 640 160 640 142.08 640 128 654.08 128 672l0 192C128 917.12 170.88 960 224 960l320 0c53.12 0 96-42.88 96-96l0-192C640 654.08 625.92 640 608 640zM701.44 435.84l-64-160C632.96 263.68 620.8 256 608 256l-448 0C147.2 256 135.04 263.68 130.56 275.84l-64 160C64.64 439.68 64 444.16 64 448c0 70.4 57.6 128 128 128 38.4 0 72.32-16.64 96-43.52C311.68 559.36 345.6 576 384 576s72.32-16.64 96-43.52C503.68 559.36 537.6 576 576 576c70.4 0 128-57.6 128-128C704 444.16 703.36 439.68 701.44 435.84zM576 512C540.8 512 512 483.2 512 448c0-17.92-14.08-32-32-32S448 430.08 448 448c0 35.2-28.8 64-64 64S320 483.2 320 448c0-17.92-14.08-32-32-32C270.08 416 256 430.08 256 448c0 35.2-28.8 64-64 64C158.72 512 131.2 486.4 128 453.76L181.76 320l404.48 0L640 453.76C636.8 486.4 609.28 512 576 512zM864 448C846.08 448 832 462.08 832 480l0 192c0 17.92-14.08 32-32 32l-64 0c-17.92 0-32 14.08-32 32 0 17.92 14.08 32 32 32l64 0c53.12 0 96-42.88 96-96l0-192C896 462.08 881.92 448 864 448zM957.44 243.84l-64-160C888.96 71.68 876.8 64 864 64l-448 0C403.2 64 391.04 71.68 386.56 83.84l-25.6 64c-6.4 16.64 1.28 35.2 17.92 41.6 16 6.4 35.2-1.28 41.6-17.92L437.76 128l404.48 0L896 261.76C892.8 294.4 865.28 320 832 320c-17.92 0-32 14.08-32 32S814.08 384 832 384c70.4 0 128-57.6 128-128C960 252.16 959.36 247.68 957.44 243.84z" p-id="46340" fill="#ffffff"></path></svg>